<?xml version="1.0" encoding="UTF-8"?>
<!DOCTYPE svg PUBLIC "-//W3C//DTD SVG 1.1//EN" "http://www.w3.org/Graphics/SVG/1.1/DTD/svg11.dtd">
<svg version="1.2" width="80.01mm" height="75.01mm" viewBox="6250 10250 8001 7501" preserveAspectRatio="xMidYMid" fill-rule="evenodd" stroke-width="28.222" stroke-linejoin="round" xmlns="http://www.w3.org/2000/svg" xmlns:ooo="http://xml.openoffice.org/svg/export" xmlns:xlink="http://www.w3.org/1999/xlink" xmlns:presentation="http://sun.com/xmlns/staroffice/presentation" xmlns:smil="http://www.w3.org/2001/SMIL20/" xmlns:anim="urn:oasis:names:tc:opendocument:xmlns:animation:1.0" xmlns:svg="urn:oasis:names:tc:opendocument:xmlns:svg-compatible:1.0" xml:space="preserve">
 <defs class="EmbeddedBulletChars">
  <g id="bullet-char-template-57356" transform="scale(0.00048828125,-0.00048828125)">
   <path d="M 580,1141 L 1163,571 580,0 -4,571 580,1141 Z"/>
  </g>
  <g id="bullet-char-template-57354" transform="scale(0.00048828125,-0.00048828125)">
   <path d="M 8,1128 L 1137,1128 1137,0 8,0 8,1128 Z"/>
  </g>
  <g id="bullet-char-template-10146" transform="scale(0.00048828125,-0.00048828125)">
   <path d="M 174,0 L 602,739 174,1481 1456,739 174,0 Z M 1358,739 L 309,1346 659,739 1358,739 Z"/>
  </g>
  <g id="bullet-char-template-10132" transform="scale(0.00048828125,-0.00048828125)">
   <path d="M 2015,739 L 1276,0 717,0 1260,543 174,543 174,936 1260,936 717,1481 1274,1481 2015,739 Z"/>
  </g>
  <g id="bullet-char-template-10007" transform="scale(0.00048828125,-0.00048828125)">
   <path d="M 0,-2 C -7,14 -16,27 -25,37 L 356,567 C 262,823 215,952 215,954 215,979 228,992 255,992 264,992 276,990 289,987 310,991 331,999 354,1012 L 381,999 492,748 772,1049 836,1024 860,1049 C 881,1039 901,1025 922,1006 886,937 835,863 770,784 769,783 710,716 594,584 L 774,223 C 774,196 753,168 711,139 L 727,119 C 717,90 699,76 672,76 641,76 570,178 457,381 L 164,-76 C 142,-110 111,-127 72,-127 30,-127 9,-110 8,-76 1,-67 -2,-52 -2,-32 -2,-23 -1,-13 0,-2 Z"/>
  </g>
  <g id="bullet-char-template-10004" transform="scale(0.00048828125,-0.00048828125)">
   <path d="M 285,-33 C 182,-33 111,30 74,156 52,228 41,333 41,471 41,549 55,616 82,672 116,743 169,778 240,778 293,778 328,747 346,684 L 369,508 C 377,444 397,411 428,410 L 1163,1116 C 1174,1127 1196,1133 1229,1133 1271,1133 1292,1118 1292,1087 L 1292,965 C 1292,929 1282,901 1262,881 L 442,47 C 390,-6 338,-33 285,-33 Z"/>
  </g>
  <g id="bullet-char-template-9679" transform="scale(0.00048828125,-0.00048828125)">
   <path d="M 813,0 C 632,0 489,54 383,161 276,268 223,411 223,592 223,773 276,916 383,1023 489,1130 632,1184 813,1184 992,1184 1136,1130 1245,1023 1353,916 1407,772 1407,592 1407,412 1353,268 1245,161 1136,54 992,0 813,0 Z"/>
  </g>
  <g id="bullet-char-template-8226" transform="scale(0.00048828125,-0.00048828125)">
   <path d="M 346,457 C 273,457 209,483 155,535 101,586 74,649 74,723 74,796 101,859 155,911 209,963 273,989 346,989 419,989 480,963 531,910 582,859 608,796 608,723 608,648 583,586 532,535 482,483 420,457 346,457 Z"/>
  </g>
  <g id="bullet-char-template-8211" transform="scale(0.00048828125,-0.00048828125)">
   <path d="M -4,459 L 1135,459 1135,606 -4,606 -4,459 Z"/>
  </g>
  <g id="bullet-char-template-61548" transform="scale(0.00048828125,-0.00048828125)">
   <path d="M 173,740 C 173,903 231,1043 346,1159 462,1274 601,1332 765,1332 928,1332 1067,1274 1183,1159 1299,1043 1357,903 1357,740 1357,577 1299,437 1183,322 1067,206 928,148 765,148 601,148 462,206 346,322 231,437 173,577 173,740 Z"/>
  </g>
 </defs>
 <g class="Page">
  <g class="Group">
   <g class="com.sun.star.drawing.CustomShape">
    <g id="id3">
     <rect class="BoundingBox" stroke="none" fill="none" x="13750" y="11750" width="501" height="2501"/>
     <path fill="rgb(17,17,17)" stroke="none" d="M 14000,14250 L 13750,14250 13750,11750 14250,11750 14250,14250 14000,14250 Z"/>
    </g>
   </g>
   <g class="com.sun.star.drawing.CustomShape">
    <g id="id4">
     <rect class="BoundingBox" stroke="none" fill="none" x="9750" y="17250" width="1001" height="501"/>
     <path fill="rgb(17,17,17)" stroke="none" d="M 10250,17750 L 9750,17750 9750,17250 10750,17250 10750,17750 10250,17750 Z"/>
    </g>
   </g>
   <g class="com.sun.star.drawing.CustomShape">
    <g id="id5">
     <rect class="BoundingBox" stroke="none" fill="none" x="9250" y="16750" width="501" height="501"/>
     <path fill="rgb(17,17,17)" stroke="none" d="M 9500,17250 L 9250,17250 9250,16750 9750,16750 9750,17250 9500,17250 Z"/>
    </g>
   </g>
   <g class="com.sun.star.drawing.CustomShape">
    <g id="id6">
     <rect class="BoundingBox" stroke="none" fill="none" x="10750" y="16750" width="501" height="501"/>
     <path fill="rgb(17,17,17)" stroke="none" d="M 11000,17250 L 10750,17250 10750,16750 11250,16750 11250,17250 11000,17250 Z"/>
    </g>
   </g>
   <g class="com.sun.star.drawing.CustomShape">
    <g id="id7">
     <rect class="BoundingBox" stroke="none" fill="none" x="11250" y="16250" width="501" height="501"/>
     <path fill="rgb(17,17,17)" stroke="none" d="M 11500,16750 L 11250,16750 11250,16250 11750,16250 11750,16750 11500,16750 Z"/>
    </g>
   </g>
   <g class="com.sun.star.drawing.CustomShape">
    <g id="id8">
     <rect class="BoundingBox" stroke="none" fill="none" x="8750" y="16250" width="501" height="501"/>
     <path fill="rgb(17,17,17)" stroke="none" d="M 9000,16750 L 8750,16750 8750,16250 9250,16250 9250,16750 9000,16750 Z"/>
    </g>
   </g>
   <g class="com.sun.star.drawing.CustomShape">
    <g id="id9">
     <rect class="BoundingBox" stroke="none" fill="none" x="11750" y="15750" width="501" height="501"/>
     <path fill="rgb(17,17,17)" stroke="none" d="M 12000,16250 L 11750,16250 11750,15750 12250,15750 12250,16250 12000,16250 Z"/>
    </g>
   </g>
   <g class="com.sun.star.drawing.CustomShape">
    <g id="id10">
     <rect class="BoundingBox" stroke="none" fill="none" x="12250" y="15250" width="501" height="501"/>
     <path fill="rgb(17,17,17)" stroke="none" d="M 12500,15750 L 12250,15750 12250,15250 12750,15250 12750,15750 12500,15750 Z"/>
    </g>
   </g>
   <g class="com.sun.star.drawing.CustomShape">
    <g id="id11">
     <rect class="BoundingBox" stroke="none" fill="none" x="12750" y="14750" width="501" height="501"/>
     <path fill="rgb(17,17,17)" stroke="none" d="M 13000,15250 L 12750,15250 12750,14750 13250,14750 13250,15250 13000,15250 Z"/>
    </g>
   </g>
   <g class="com.sun.star.drawing.CustomShape">
    <g id="id12">
     <rect class="BoundingBox" stroke="none" fill="none" x="13250" y="14250" width="501" height="501"/>
     <path fill="rgb(17,17,17)" stroke="none" d="M 13500,14750 L 13250,14750 13250,14250 13750,14250 13750,14750 13500,14750 Z"/>
    </g>
   </g>
   <g class="com.sun.star.drawing.CustomShape">
    <g id="id13">
     <rect class="BoundingBox" stroke="none" fill="none" x="8250" y="15750" width="501" height="501"/>
     <path fill="rgb(17,17,17)" stroke="none" d="M 8500,16250 L 8250,16250 8250,15750 8750,15750 8750,16250 8500,16250 Z"/>
    </g>
   </g>
   <g class="com.sun.star.drawing.CustomShape">
    <g id="id14">
     <rect class="BoundingBox" stroke="none" fill="none" x="7750" y="15250" width="501" height="501"/>
     <path fill="rgb(17,17,17)" stroke="none" d="M 8000,15750 L 7750,15750 7750,15250 8250,15250 8250,15750 8000,15750 Z"/>
    </g>
   </g>
   <g class="com.sun.star.drawing.CustomShape">
    <g id="id15">
     <rect class="BoundingBox" stroke="none" fill="none" x="7250" y="14750" width="501" height="501"/>
     <path fill="rgb(17,17,17)" stroke="none" d="M 7500,15250 L 7250,15250 7250,14750 7750,14750 7750,15250 7500,15250 Z"/>
    </g>
   </g>
   <g class="com.sun.star.drawing.CustomShape">
    <g id="id16">
     <rect class="BoundingBox" stroke="none" fill="none" x="6750" y="14250" width="501" height="501"/>
     <path fill="rgb(17,17,17)" stroke="none" d="M 7000,14750 L 6750,14750 6750,14250 7250,14250 7250,14750 7000,14750 Z"/>
    </g>
   </g>
   <g class="com.sun.star.drawing.CustomShape">
    <g id="id17">
     <rect class="BoundingBox" stroke="none" fill="none" x="6250" y="11750" width="501" height="2501"/>
     <path fill="rgb(17,17,17)" stroke="none" d="M 6500,14250 L 6250,14250 6250,11750 6750,11750 6750,14250 6500,14250 Z"/>
    </g>
   </g>
   <g class="com.sun.star.drawing.CustomShape">
    <g id="id18">
     <rect class="BoundingBox" stroke="none" fill="none" x="6750" y="11250" width="501" height="501"/>
     <path fill="rgb(17,17,17)" stroke="none" d="M 7000,11750 L 6750,11750 6750,11250 7250,11250 7250,11750 7000,11750 Z"/>
    </g>
   </g>
   <g class="com.sun.star.drawing.CustomShape">
    <g id="id19">
     <rect class="BoundingBox" stroke="none" fill="none" x="12750" y="10750" width="501" height="501"/>
     <path fill="rgb(17,17,17)" stroke="none" d="M 13000,11250 L 12750,11250 12750,10750 13250,10750 13250,11250 13000,11250 Z"/>
    </g>
   </g>
   <g class="com.sun.star.drawing.CustomShape">
    <g id="id20">
     <rect class="BoundingBox" stroke="none" fill="none" x="13250" y="11250" width="501" height="501"/>
     <path fill="rgb(17,17,17)" stroke="none" d="M 13500,11750 L 13250,11750 13250,11250 13750,11250 13750,11750 13500,11750 Z"/>
    </g>
   </g>
   <g class="com.sun.star.drawing.CustomShape">
    <g id="id21">
     <rect class="BoundingBox" stroke="none" fill="none" x="9250" y="10750" width="501" height="501"/>
     <path fill="rgb(17,17,17)" stroke="none" d="M 9500,11250 L 9250,11250 9250,10750 9750,10750 9750,11250 9500,11250 Z"/>
    </g>
   </g>
   <g class="com.sun.star.drawing.CustomShape">
    <g id="id22">
     <rect class="BoundingBox" stroke="none" fill="none" x="7250" y="10750" width="501" height="501"/>
     <path fill="rgb(17,17,17)" stroke="none" d="M 7500,11250 L 7250,11250 7250,10750 7750,10750 7750,11250 7500,11250 Z"/>
    </g>
   </g>
   <g class="com.sun.star.drawing.CustomShape">
    <g id="id23">
     <rect class="BoundingBox" stroke="none" fill="none" x="7750" y="10250" width="1501" height="501"/>
     <path fill="rgb(17,17,17)" stroke="none" d="M 8500,10750 L 7750,10750 7750,10250 9250,10250 9250,10750 8500,10750 Z"/>
    </g>
   </g>
   <g class="com.sun.star.drawing.CustomShape">
    <g id="id24">
     <rect class="BoundingBox" stroke="none" fill="none" x="11250" y="10250" width="1501" height="501"/>
     <path fill="rgb(17,17,17)" stroke="none" d="M 12000,10750 L 11250,10750 11250,10250 12750,10250 12750,10750 12000,10750 Z"/>
    </g>
   </g>
   <g class="com.sun.star.drawing.CustomShape">
    <g id="id25">
     <rect class="BoundingBox" stroke="none" fill="none" x="10750" y="10750" width="501" height="501"/>
     <path fill="rgb(17,17,17)" stroke="none" d="M 11000,11250 L 10750,11250 10750,10750 11250,10750 11250,11250 11000,11250 Z"/>
    </g>
   </g>
   <g class="com.sun.star.drawing.CustomShape">
    <g id="id26">
     <rect class="BoundingBox" stroke="none" fill="none" x="9750" y="11250" width="1001" height="501"/>
     <path fill="rgb(17,17,17)" stroke="none" d="M 10250,11750 L 9750,11750 9750,11250 10750,11250 10750,11750 10250,11750 Z"/>
    </g>
   </g>
  </g>
  <g class="Group">
   <g class="Group">
    <g class="com.sun.star.drawing.CustomShape">
     <g id="id27">
      <rect class="BoundingBox" stroke="none" fill="none" x="7750" y="14500" width="5001" height="751"/>
      <path fill="rgb(255,0,106)" stroke="none" d="M 10250,15250 L 7750,15250 7750,14500 12750,14500 12750,15250 10250,15250 Z"/>
     </g>
    </g>
    <g class="Group">
     <g class="com.sun.star.drawing.CustomShape">
      <g id="id28">
       <rect class="BoundingBox" stroke="none" fill="none" x="7750" y="10750" width="1501" height="1251"/>
       <path fill="rgb(255,0,106)" stroke="none" d="M 8500,12000 L 7750,12000 7750,10750 9250,10750 9250,12000 8500,12000 Z"/>
      </g>
     </g>
     <g class="com.sun.star.drawing.CustomShape">
      <g id="id29">
       <rect class="BoundingBox" stroke="none" fill="none" x="11250" y="10750" width="1501" height="1251"/>
       <path fill="rgb(255,0,106)" stroke="none" d="M 12000,12000 L 11250,12000 11250,10750 12750,10750 12750,12000 12000,12000 Z"/>
      </g>
     </g>
     <g class="com.sun.star.drawing.CustomShape">
      <g id="id30">
       <rect class="BoundingBox" stroke="none" fill="none" x="6750" y="11750" width="7001" height="2501"/>
       <path fill="rgb(255,0,106)" stroke="none" d="M 10250,14250 L 6750,14250 6750,11750 13750,11750 13750,14250 10250,14250 Z"/>
      </g>
     </g>
     <g class="com.sun.star.drawing.CustomShape">
      <g id="id31">
       <rect class="BoundingBox" stroke="none" fill="none" x="7250" y="14000" width="6001" height="751"/>
       <path fill="rgb(255,0,106)" stroke="none" d="M 10250,14750 L 7250,14750 7250,14000 13250,14000 13250,14750 10250,14750 Z"/>
      </g>
     </g>
     <g class="com.sun.star.drawing.CustomShape">
      <g id="id32">
       <rect class="BoundingBox" stroke="none" fill="none" x="8250" y="15000" width="4001" height="751"/>
       <path fill="rgb(255,0,106)" stroke="none" d="M 10250,15750 L 8250,15750 8250,15000 12250,15000 12250,15750 10250,15750 Z"/>
      </g>
     </g>
     <g class="com.sun.star.drawing.CustomShape">
      <g id="id33">
       <rect class="BoundingBox" stroke="none" fill="none" x="8750" y="15500" width="3001" height="751"/>
       <path fill="rgb(255,0,106)" stroke="none" d="M 10250,16250 L 8750,16250 8750,15500 11750,15500 11750,16250 10250,16250 Z"/>
      </g>
     </g>
     <g class="com.sun.star.drawing.CustomShape">
      <g id="id34">
       <rect class="BoundingBox" stroke="none" fill="none" x="9250" y="16000" width="2001" height="751"/>
       <path fill="rgb(255,0,106)" stroke="none" d="M 10250,16750 L 9250,16750 9250,16000 11250,16000 11250,16750 10250,16750 Z"/>
      </g>
     </g>
     <g class="com.sun.star.drawing.CustomShape">
      <g id="id35">
       <rect class="BoundingBox" stroke="none" fill="none" x="9750" y="16500" width="1001" height="751"/>
       <path fill="rgb(255,0,106)" stroke="none" d="M 10250,17250 L 9750,17250 9750,16500 10750,16500 10750,17250 10250,17250 Z"/>
      </g>
     </g>
     <g class="com.sun.star.drawing.CustomShape">
      <g id="id36">
       <rect class="BoundingBox" stroke="none" fill="none" x="7250" y="11250" width="751" height="751"/>
       <path fill="rgb(255,0,106)" stroke="none" d="M 7625,12000 L 7250,12000 7250,11250 8000,11250 8000,12000 7625,12000 Z"/>
      </g>
     </g>
     <g class="com.sun.star.drawing.CustomShape">
      <g id="id37">
       <rect class="BoundingBox" stroke="none" fill="none" x="9000" y="11250" width="751" height="751"/>
       <path fill="rgb(255,0,106)" stroke="none" d="M 9375,12000 L 9000,12000 9000,11250 9750,11250 9750,12000 9375,12000 Z"/>
      </g>
     </g>
     <g class="com.sun.star.drawing.CustomShape">
      <g id="id38">
       <rect class="BoundingBox" stroke="none" fill="none" x="10750" y="11250" width="751" height="751"/>
       <path fill="rgb(255,0,106)" stroke="none" d="M 11125,12000 L 10750,12000 10750,11250 11500,11250 11500,12000 11125,12000 Z"/>
      </g>
     </g>
     <g class="com.sun.star.drawing.CustomShape">
      <g id="id39">
       <rect class="BoundingBox" stroke="none" fill="none" x="12500" y="11250" width="751" height="751"/>
       <path fill="rgb(255,0,106)" stroke="none" d="M 12875,12000 L 12500,12000 12500,11250 13250,11250 13250,12000 12875,12000 Z"/>
      </g>
     </g>
    </g>
   </g>
  </g>
  <g class="Group">
   <g class="com.sun.star.drawing.CustomShape">
    <g id="id40">
     <rect class="BoundingBox" stroke="none" fill="none" x="7750" y="11250" width="501" height="501"/>
     <path fill="rgb(255,255,255)" stroke="none" d="M 8000,11750 L 7750,11750 7750,11250 8250,11250 8250,11750 8000,11750 Z"/>
    </g>
   </g>
   <g class="com.sun.star.drawing.CustomShape">
    <g id="id41">
     <rect class="BoundingBox" stroke="none" fill="none" x="7250" y="11750" width="501" height="1001"/>
     <path fill="rgb(255,255,255)" stroke="none" d="M 7500,12750 L 7250,12750 7250,11750 7750,11750 7750,12750 7500,12750 Z"/>
    </g>
   </g>
  </g>
  <g class="Group">
   <g class="com.sun.star.drawing.CustomShape">
    <g id="id42">
     <rect class="BoundingBox" stroke="none" fill="none" x="9250" y="12750" width="501" height="501"/>
     <path fill="rgb(167,7,75)" stroke="none" d="M 9500,13250 L 9250,13250 9250,12750 9750,12750 9750,13250 9500,13250 Z"/>
    </g>
   </g>
   <g class="com.sun.star.drawing.CustomShape">
    <g id="id43">
     <rect class="BoundingBox" stroke="none" fill="none" x="8750" y="13250" width="501" height="501"/>
     <path fill="rgb(167,7,75)" stroke="none" d="M 9000,13750 L 8750,13750 8750,13250 9250,13250 9250,13750 9000,13750 Z"/>
    </g>
   </g>
   <g class="com.sun.star.drawing.CustomShape">
    <g id="id44">
     <rect class="BoundingBox" stroke="none" fill="none" x="8250" y="12750" width="501" height="501"/>
     <path fill="rgb(167,7,75)" stroke="none" d="M 8500,13250 L 8250,13250 8250,12750 8750,12750 8750,13250 8500,13250 Z"/>
    </g>
   </g>
   <g class="com.sun.star.drawing.CustomShape">
    <g id="id45">
     <rect class="BoundingBox" stroke="none" fill="none" x="9250" y="13750" width="501" height="501"/>
     <path fill="rgb(167,7,75)" stroke="none" d="M 9500,14250 L 9250,14250 9250,13750 9750,13750 9750,14250 9500,14250 Z"/>
    </g>
   </g>
   <g class="com.sun.star.drawing.CustomShape">
    <g id="id46">
     <rect class="BoundingBox" stroke="none" fill="none" x="11750" y="13250" width="501" height="501"/>
     <path fill="rgb(167,7,75)" stroke="none" d="M 12000,13750 L 11750,13750 11750,13250 12250,13250 12250,13750 12000,13750 Z"/>
    </g>
   </g>
   <g class="com.sun.star.drawing.CustomShape">
    <g id="id47">
     <rect class="BoundingBox" stroke="none" fill="none" x="8250" y="13750" width="501" height="501"/>
     <path fill="rgb(167,7,75)" stroke="none" d="M 8500,14250 L 8250,14250 8250,13750 8750,13750 8750,14250 8500,14250 Z"/>
    </g>
   </g>
   <g class="com.sun.star.drawing.CustomShape">
    <g id="id48">
     <rect class="BoundingBox" stroke="none" fill="none" x="11250" y="13750" width="501" height="501"/>
     <path fill="rgb(167,7,75)" stroke="none" d="M 11500,14250 L 11250,14250 11250,13750 11750,13750 11750,14250 11500,14250 Z"/>
    </g>
   </g>
   <g class="com.sun.star.drawing.CustomShape">
    <g id="id49">
     <rect class="BoundingBox" stroke="none" fill="none" x="12250" y="12750" width="501" height="501"/>
     <path fill="rgb(167,7,75)" stroke="none" d="M 12500,13250 L 12250,13250 12250,12750 12750,12750 12750,13250 12500,13250 Z"/>
    </g>
   </g>
   <g class="com.sun.star.drawing.CustomShape">
    <g id="id50">
     <rect class="BoundingBox" stroke="none" fill="none" x="10750" y="13250" width="501" height="501"/>
     <path fill="rgb(167,7,75)" stroke="none" d="M 11000,13750 L 10750,13750 10750,13250 11250,13250 11250,13750 11000,13750 Z"/>
    </g>
   </g>
  </g>
 </g>
</svg>