<?xml version="1.0" encoding="UTF-8"?>
<!DOCTYPE svg PUBLIC "-//W3C//DTD SVG 1.1//EN" "http://www.w3.org/Graphics/SVG/1.1/DTD/svg11.dtd">
<svg version="1.2" width="30.57mm" height="30.15mm" viewBox="4745 15643 3057 3015" preserveAspectRatio="xMidYMid" fill-rule="evenodd" stroke-width="28.222" stroke-linejoin="round" xmlns="http://www.w3.org/2000/svg" xmlns:ooo="http://xml.openoffice.org/svg/export" xmlns:xlink="http://www.w3.org/1999/xlink" xmlns:presentation="http://sun.com/xmlns/staroffice/presentation" xmlns:smil="http://www.w3.org/2001/SMIL20/" xmlns:anim="urn:oasis:names:tc:opendocument:xmlns:animation:1.0" xmlns:svg="urn:oasis:names:tc:opendocument:xmlns:svg-compatible:1.0" xml:space="preserve">
 <defs class="EmbeddedBulletChars">
  <g id="bullet-char-template-57356" transform="scale(0.00048828125,-0.00048828125)">
   <path d="M 580,1141 L 1163,571 580,0 -4,571 580,1141 Z"/>
  </g>
  <g id="bullet-char-template-57354" transform="scale(0.00048828125,-0.00048828125)">
   <path d="M 8,1128 L 1137,1128 1137,0 8,0 8,1128 Z"/>
  </g>
  <g id="bullet-char-template-10146" transform="scale(0.00048828125,-0.00048828125)">
   <path d="M 174,0 L 602,739 174,1481 1456,739 174,0 Z M 1358,739 L 309,1346 659,739 1358,739 Z"/>
  </g>
  <g id="bullet-char-template-10132" transform="scale(0.00048828125,-0.00048828125)">
   <path d="M 2015,739 L 1276,0 717,0 1260,543 174,543 174,936 1260,936 717,1481 1274,1481 2015,739 Z"/>
  </g>
  <g id="bullet-char-template-10007" transform="scale(0.00048828125,-0.00048828125)">
   <path d="M 0,-2 C -7,14 -16,27 -25,37 L 356,567 C 262,823 215,952 215,954 215,979 228,992 255,992 264,992 276,990 289,987 310,991 331,999 354,1012 L 381,999 492,748 772,1049 836,1024 860,1049 C 881,1039 901,1025 922,1006 886,937 835,863 770,784 769,783 710,716 594,584 L 774,223 C 774,196 753,168 711,139 L 727,119 C 717,90 699,76 672,76 641,76 570,178 457,381 L 164,-76 C 142,-110 111,-127 72,-127 30,-127 9,-110 8,-76 1,-67 -2,-52 -2,-32 -2,-23 -1,-13 0,-2 Z"/>
  </g>
  <g id="bullet-char-template-10004" transform="scale(0.00048828125,-0.00048828125)">
   <path d="M 285,-33 C 182,-33 111,30 74,156 52,228 41,333 41,471 41,549 55,616 82,672 116,743 169,778 240,778 293,778 328,747 346,684 L 369,508 C 377,444 397,411 428,410 L 1163,1116 C 1174,1127 1196,1133 1229,1133 1271,1133 1292,1118 1292,1087 L 1292,965 C 1292,929 1282,901 1262,881 L 442,47 C 390,-6 338,-33 285,-33 Z"/>
  </g>
  <g id="bullet-char-template-9679" transform="scale(0.00048828125,-0.00048828125)">
   <path d="M 813,0 C 632,0 489,54 383,161 276,268 223,411 223,592 223,773 276,916 383,1023 489,1130 632,1184 813,1184 992,1184 1136,1130 1245,1023 1353,916 1407,772 1407,592 1407,412 1353,268 1245,161 1136,54 992,0 813,0 Z"/>
  </g>
  <g id="bullet-char-template-8226" transform="scale(0.00048828125,-0.00048828125)">
   <path d="M 346,457 C 273,457 209,483 155,535 101,586 74,649 74,723 74,796 101,859 155,911 209,963 273,989 346,989 419,989 480,963 531,910 582,859 608,796 608,723 608,648 583,586 532,535 482,483 420,457 346,457 Z"/>
  </g>
  <g id="bullet-char-template-8211" transform="scale(0.00048828125,-0.00048828125)">
   <path d="M -4,459 L 1135,459 1135,606 -4,606 -4,459 Z"/>
  </g>
  <g id="bullet-char-template-61548" transform="scale(0.00048828125,-0.00048828125)">
   <path d="M 173,740 C 173,903 231,1043 346,1159 462,1274 601,1332 765,1332 928,1332 1067,1274 1183,1159 1299,1043 1357,903 1357,740 1357,577 1299,437 1183,322 1067,206 928,148 765,148 601,148 462,206 346,322 231,437 173,577 173,740 Z"/>
  </g>
 </defs>
 <g class="Page">
  <g class="com.sun.star.drawing.CustomShape">
   <g id="id3">
    <rect class="BoundingBox" stroke="none" fill="none" x="4893" y="15643" width="2754" height="3015"/>
    <path fill="none" stroke="rgb(102,102,102)" stroke-width="212" stroke-linejoin="round" d="M 7540,16330 L 7540,16330 C 7540,16228 7513,16128 7462,16040 7411,15952 7338,15879 7250,15828 7162,15777 7062,15750 6960,15750 L 5580,15750 5579,15750 C 5477,15750 5377,15777 5289,15828 5201,15879 5128,15952 5077,16040 5026,16128 4999,16228 4999,16330"/>
    <path fill="none" stroke="rgb(102,102,102)" stroke-width="212" stroke-linejoin="round" d="M 4999,17970 L 4999,17971 C 4999,18073 5026,18173 5077,18261 5128,18349 5201,18422 5289,18473 5377,18524 5477,18551 5579,18551 L 6960,18550 6960,18551 6960,18551 C 7062,18551 7162,18524 7250,18473 7338,18422 7411,18349 7462,18261 7513,18173 7540,18073 7540,17971"/>
   </g>
  </g>
  <g class="Group">
   <g class="com.sun.star.drawing.CustomShape">
    <g id="id4">
     <rect class="BoundingBox" stroke="none" fill="none" x="7049" y="16495" width="202" height="1302"/>
     <path fill="rgb(255,128,0)" stroke="none" d="M 7250,16528 L 7250,16529 C 7250,16523 7248,16517 7246,16512 7243,16507 7238,16502 7233,16499 7228,16497 7222,16495 7217,16495 L 7083,16495 7082,16495 C 7077,16495 7071,16497 7066,16499 7061,16502 7056,16507 7053,16512 7051,16517 7049,16523 7049,16529 L 7050,17762 7049,17763 C 7049,17768 7051,17774 7053,17779 7056,17784 7061,17789 7066,17792 7071,17794 7077,17796 7082,17796 L 7217,17795 7217,17796 7217,17796 C 7222,17796 7228,17794 7233,17792 7238,17789 7243,17784 7246,17779 7248,17774 7250,17768 7250,17763 L 7250,16528 Z"/>
    </g>
   </g>
   <g class="com.sun.star.drawing.CustomShape">
    <g id="id5">
     <rect class="BoundingBox" stroke="none" fill="none" x="6500" y="17045" width="1302" height="202"/>
     <path fill="rgb(255,128,0)" stroke="none" d="M 6533,17045 L 6534,17045 C 6528,17045 6522,17047 6517,17049 6512,17052 6507,17057 6504,17062 6502,17067 6500,17073 6500,17079 L 6500,17212 6500,17213 C 6500,17218 6502,17224 6504,17229 6507,17234 6512,17239 6517,17242 6522,17244 6528,17246 6534,17246 L 7767,17245 7768,17246 C 7773,17246 7779,17244 7784,17242 7789,17239 7794,17234 7797,17229 7799,17224 7801,17218 7801,17213 L 7800,17078 7801,17079 7801,17079 C 7801,17073 7799,17067 7797,17062 7794,17057 7789,17052 7784,17049 7779,17047 7773,17045 7768,17045 L 6533,17045 Z"/>
    </g>
   </g>
  </g>
  <g class="com.sun.star.drawing.CustomShape">
   <g id="id6">
    <rect class="BoundingBox" stroke="none" fill="none" x="4745" y="17046" width="1302" height="202"/>
    <path fill="rgb(42,96,153)" stroke="none" d="M 4778,17046 L 4779,17046 C 4773,17046 4767,17048 4762,17050 4757,17053 4752,17058 4749,17063 4747,17068 4745,17074 4745,17080 L 4745,17213 4745,17214 C 4745,17219 4747,17225 4749,17230 4752,17235 4757,17240 4762,17243 4767,17245 4773,17247 4779,17247 L 6012,17246 6013,17247 C 6018,17247 6024,17245 6029,17243 6034,17240 6039,17235 6042,17230 6044,17225 6046,17219 6046,17214 L 6045,17079 6046,17080 6046,17080 C 6046,17074 6044,17068 6042,17063 6039,17058 6034,17053 6029,17050 6024,17048 6018,17046 6013,17046 L 4778,17046 Z"/>
   </g>
  </g>
 </g>
</svg>