<svg width="16" height="16" viewBox="0 0 16 16" fill="none" xmlns="http://www.w3.org/2000/svg">
<g clip-path="url(#clip0_14_297)">
<path d="M6.19599 4.379C6.49199 4.676 6.99999 4.466 6.99999 4.046V0.471C6.99999 0.211 6.78899 0 6.52899 0H2.95399C2.53399 0 2.32399 0.508 2.62099 0.805L6.19599 4.379Z" fill="black"/>
<path d="M6.092 0.862998C2.878 1.709 0.5 4.633 0.5 8.109C0.5 12.245 3.864 15.609 8 15.609C12.136 15.609 15.5 12.245 15.5 8.109C15.5 4.313 12.663 1.175 9 0.683998V2.2C11.833 2.678 14 5.142 14 8.11C14 11.419 11.309 14.11 8 14.11C4.691 14.11 2 11.419 2 8.11C2 5.452 3.739 3.198 6.138 2.413L6.092 0.862998Z" fill="black"/>
<path d="M6 10.356V5.644C6 5.15 6.533 4.841 6.962 5.086L11.085 7.442C11.517 7.689 11.517 8.312 11.085 8.558L6.962 10.914C6.533 11.159 6 10.85 6 10.356Z" fill="black"/>
</g>
<defs>
<clipPath id="clip0_14_297">
<rect width="16" height="16" fill="white"/>
</clipPath>
</defs>
</svg>
